{"title":"Joe 2013 WEB-DL x264 AC3 - BiTo","uid":9939320,"size":985070406,"categoryP":"video","categoryS":"movies","magnet":"?xt=urn:btih:c4c329a23e83ac3a5cc7030ed97a3f906585b38d&amp;dn=Joe+2013+WEB-DL+x264+AC3+-+BiTo&amp;tr=udp%3A%2F%2Ftracker.openbittorrent.com%3A80&amp;tr=udp%3A%2F%2Fopen.demonii.com%3A1337&amp;tr=udp%3A%2F%2Ftracker.coppersurfer.tk%3A6969&amp;tr=udp%3A%2F%2Fexodus.desync.com%3A6969","seeders":1,"leechers":0,"uploader":"xxxlavalxxx","files":-1,"time":1397207676,"description":" &lt;a href=&quot;\nhttp://www.imdb.com/title/tt2382396/&quot; rel=&quot;nofollow&quot; target=&quot;_NEW&quot;&gt;\nhttp://www.imdb.com/title/tt2382396/&lt;/a&gt;\n\n\nAn ex-con, who is the unlikeliest of role models, meets a 15-year-old boy and is faced with the choice of redemption or ruin.\n\nDirector: David Gordon Green\nWriters: Larry Brown (novel), Gary Hawkins (screenplay)\nStars: Nicolas Cage, Tye Sheridan, Gary Poulter \nGenres: Drama\nCountry: USA\nLanguage: English\n\n\nSource: Itunes OWN\nAudio: AC3 @ 6CH\nConatiner: MKV\nCodex: x264\nSubs: NAH\n\nVideo\nID                                       : 1\nFormat                                   : AVC\nFormat/Info                              : Advanced Video Codec\nFormat profile                           : &lt;a class=&quot;__cf_email__&quot; href=&quot;/cdn-cgi/l/email-protection&quot; data-cfemail=&quot;5e163739361e126a706f&quot;&gt;[email&amp;#160;protected]&lt;/a&gt;&lt;script cf-hash='f9e31' type=&quot;text/javascript&quot;&gt;\n/* &lt;![CDATA[ */!function(){try{var t=&quot;currentScript&quot;in document?document.currentScript:function(){for(var t=document.getElementsByTagName(&quot;script&quot;),e=t.length;e--;)if(t[e].getAttribute(&quot;cf-hash&quot;))return t[e]}();if(t&amp;&amp;t.previousSibling){var e,r,n,i,c=t.previousSibling,a=c.getAttribute(&quot;data-cfemail&quot;);if(a){for(e=&quot;&quot;,r=parseInt(a.substr(0,2),16),n=2;a.length-n;n+=2)i=parseInt(a.substr(n,2),16)^r,e+=String.fromCharCode(i);e=document.createTextNode(e),c.parentNode.replaceChild(e,c)}}}catch(u){}}();/* ]]&gt; */&lt;/script&gt;\nFormat settings, CABAC                   : Yes\nFormat settings, ReFrames                : 3 frames\nCodec ID                                 : V_MPEG4/ISO/AVC\nDuration                                 : 1h 57mn\nBit rate mode                            : Variable\nBit rate                                 : 709 Kbps\nMaximum bit rate                         : 40.0 Mbps\nWidth                                    : 720 pixels\nHeight                                   : 304 pixels\nDisplay aspect ratio                     : 2.35:1\nFrame rate mode                          : Constant\nFrame rate                               : 23.976 fps\nColor space                              : YUV\nChroma subsampling                       : 4:2:0\nBit depth                                : 8 bits\nScan type                                : Progressive\nBits/(Pixel*Frame)                       : 0.135\nStream size                              : 597 MiB (64%)\nWriting library                          : x264 core 138 r2358 9e941d1                                : Yes\nForced                                   : No\nColor primaries                          : BT.709\nTransfer characteristics                 : BT.709\nMatrix coefficients                      : BT.709\n\nAudio\nID                                       : 2\nFormat                                   : AC-3\nFormat/Info                              : Audio Coding 3\nMode extension                           : CM (complete main)\nFormat settings, Endianness              : Big\nCodec ID                                 : A_AC3\nDuration                                 : 1h 57mn\nBit rate mode                            : Constant\nBit rate                                 : 384 Kbps\nChannel(s)                               : 6 channels\nChannel positions                        : Front: L C R, Side: L R, LFE\nSampling rate                            : 48.0 KHz\nBit depth                                : 16 bits\nCompression mode                         : Lossy\nStream size                              : 323 MiB (34%)\nDefault                                  : Yes\nForced                                   : No\n\n\n\nscreens\n &lt;a href=&quot;\nhttp://i.imgur.com/s1I96Wi.png&quot; rel=&quot;nofollow&quot; target=&quot;_NEW&quot;&gt;\nhttp://i.imgur.com/s1I96Wi.png&lt;/a&gt; &lt;a href=&quot;\nhttp://i.imgur.com/TLrctp3.png&quot; rel=&quot;nofollow&quot; target=&quot;_NEW&quot;&gt;\nhttp://i.imgur.com/TLrctp3.png&lt;/a&gt; &lt;a href=&quot;\nhttp://i.imgur.com/V1fK61D.png&quot; rel=&quot;nofollow&quot; target=&quot;_NEW&quot;&gt;\nhttp://i.imgur.com/V1fK61D.png&lt;/a&gt; &lt;a href=&quot;\nhttp://i.imgur.com/RqMtmeB.png&quot; rel=&quot;nofollow&quot; target=&quot;_NEW&quot;&gt;\nhttp://i.imgur.com/RqMtmeB.png&lt;/a&gt; &lt;a href=&quot;\nhttp://i.imgur.com/8T9KS1C.png&quot; rel=&quot;nofollow&quot; target=&quot;_NEW&quot;&gt;\nhttp://i.imgur.com/8T9KS1C.png&lt;/a&gt; &lt;a href=&quot;\nhttp://i.imgur.com/vdwHpJv.png&quot; rel=&quot;nofollow&quot; target=&quot;_NEW&quot;&gt;\nhttp://i.imgur.com/vdwHpJv.png&lt;/a&gt;","torrent":{"xt":"urn:btih:c4c329a23e83ac3a5cc7030ed97a3f906585b38d","amp;dn":"Joe+2013+WEB-DL+x264+AC3+-+BiTo","amp;tr":["udp%3A%2F%2Ftracker.openbittorrent.com%3A80","udp%3A%2F%2Fopen.demonii.com%3A1337","udp%3A%2F%2Ftracker.coppersurfer.tk%3A6969","udp%3A%2F%2Fexodus.desync.com%3A6969"],"infoHash":"c4c329a23e83ac3a5cc7030ed97a3f906585b38d","infoHashBuffer":{"type":"Buffer","data":[196,195,41,162,62,131,172,58,92,199,3,14,217,122,63,144,101,133,179,141]},"announce":[],"urlList":[]}}